<svg width="16" height="16" viewBox="0 0 16 16" fill="none" xmlns="http://www.w3.org/2000/svg">
<path fill-rule="evenodd" clip-rule="evenodd" d="M7.00008 0.666016C10.4979 0.666016 13.3334 3.50156 13.3334 6.99935C13.3334 8.50811 12.8058 9.89365 11.9251 10.9816L14.3739 13.4303C14.6342 13.6907 14.6342 14.1128 14.3739 14.3731C14.1135 14.6335 13.6914 14.6335 13.431 14.3731L10.9823 11.9244C9.89438 12.8051 8.50884 13.3327 7.00008 13.3327C3.50229 13.3327 0.666748 10.4971 0.666748 6.99935C0.666748 3.50156 3.50229 0.666016 7.00008 0.666016ZM2.00008 6.99935C2.00008 9.76076 4.23867 11.9993 7.00008 11.9993C9.76149 11.9993 12.0001 9.76076 12.0001 6.99935C12.0001 4.23794 9.76149 1.99935 7.00008 1.99935C4.23867 1.99935 2.00008 4.23794 2.00008 6.99935Z" fill="#B8B8D2"/>
</svg>
