<svg width="36" height="36" viewBox="0 0 36 36" fill="none" xmlns="http://www.w3.org/2000/svg">
<g clip-path="url(#clip0_0_2308)">
<circle cx="18" cy="18" r="18" fill="#EAEAFF"/>
<path fill-rule="evenodd" clip-rule="evenodd" d="M18 36C8.05888 36 0 27.9411 0 18C0 8.05888 8.05888 0 18 0C27.9411 0 36 8.05888 36 18C36 27.9411 27.9411 36 18 36Z" fill="#FFEBF0"/>
<path d="M20.2002 14.0091C20.2002 14.0091 20.593 13.7681 21.2267 13.8484C21.8605 13.9288 22.1461 14.1698 22.1461 14.1698" fill="white"/>
<path d="M17.0761 14.0091C17.0761 14.0091 16.6833 13.7681 16.0495 13.8484C15.4158 13.9288 15.1301 14.1698 15.1301 14.1698" fill="white"/>
<path d="M8.84657 29.2828C5.31175 30.8896 1.43773 35.8526 0.00952148 41.6725H6.32935L5.28497 46.9569C9.0608 48.885 13.3365 49.974 17.8621 49.974C22.4146 49.974 26.6992 48.8761 30.4839 46.9301L29.3771 42.3509L35.7683 41.7797C35.7594 41.7797 34.2866 33.5674 27.5472 29.6845C22.1468 26.5781 13.8275 27.0423 8.84657 29.2828Z" fill="#3D5CFF"/>
<path d="M8.05192 35.6836L4.29395 41.6732L6.42733 41.6642L8.05192 35.6836Z" fill="#224BF4"/>
<path d="M29.3765 42.3514L31.2778 42.1907L27.0378 34.9336L29.3765 42.3514Z" fill="#224BF4"/>
<path d="M6.40916 41.7614C6.36453 41.7525 6.33775 41.6989 6.34668 41.6543L8.13194 35.031C8.14087 34.9864 8.19443 34.9596 8.23906 34.9685C8.28369 34.9774 8.31047 35.031 8.30154 35.0756L6.51628 41.6989C6.50735 41.7347 6.47165 41.7614 6.43594 41.7614C6.42702 41.7614 6.41809 41.7614 6.40916 41.7614Z" fill="#1F1F39"/>
<path d="M29.2067 42.3508L26.9216 34.933C26.9038 34.8884 26.9305 34.8438 26.9752 34.8259C27.0198 34.8081 27.0644 34.8348 27.0823 34.8795L29.3763 42.2972C29.3942 42.3419 29.3674 42.3865 29.3228 42.4043C29.3049 42.4043 29.296 42.4133 29.2871 42.4133C29.2514 42.4133 29.2157 42.3865 29.2067 42.3508Z" fill="#1F1F39"/>
<path d="M11.6089 14.7145C11.6089 14.7145 9.52013 14.7145 8.95777 13.804C8.39541 12.9025 9.21663 12.2419 9.21663 12.2419C9.21663 12.2419 8.08299 10.7423 8.68105 9.36765C9.38623 7.75199 11.0376 8.09119 11.0376 8.09119C11.0376 8.09119 9.83255 5.9578 11.3054 4.35999C13.1085 2.3962 16.1256 4.35999 16.1256 4.35999C16.1256 4.35999 16.322 3.08353 17.6341 3.08353C18.9374 3.08353 18.9374 3.86904 18.9374 3.86904C18.9374 3.86904 20.1067 2.28908 22.1509 2.88715C25.159 3.77085 24.6413 7.10929 24.6413 7.10929C24.6413 7.10929 25.8463 6.81472 26.248 8.18938C26.6497 9.56403 25.3465 10.055 25.3465 10.055C25.3465 10.055 26.5605 9.8586 26.8639 10.8405C27.3192 12.3133 26.0606 13.0988 26.0606 13.0988L25.3554 16.5355L11.8945 17.0889L11.6089 14.7145Z" fill="#1F1F39"/>
<path d="M9.27905 14.4109C7.82406 15.0803 7.67232 17.0977 8.77025 18.3652C9.86819 19.6328 12.6353 19.3382 12.6353 19.3382L12.2337 14.8036C12.2337 14.8036 10.734 13.7414 9.27905 14.4109Z" fill="#C43D28"/>
<path d="M26.7213 14.4105C28.1763 15.08 28.328 17.0973 27.2301 18.3649C26.1321 19.6324 23.365 19.3378 23.365 19.3378L24.1059 14.7408C24.1059 14.7408 25.2574 13.741 26.7213 14.4105Z" fill="#C43D28"/>
<path d="M24.1504 18.4008C24.1504 18.374 24.1593 17.8385 24.7485 16.928C25.3465 16.0086 26.4445 15.7051 26.4891 15.6872C26.5516 15.6694 26.6051 15.7051 26.623 15.7676C26.6408 15.83 26.6051 15.8836 26.5426 15.9014C26.5337 15.9014 25.4804 16.2049 24.927 17.044C24.3735 17.892 24.3646 18.3919 24.3646 18.4008C24.3646 18.4544 24.32 18.5079 24.2575 18.5079C24.195 18.5079 24.1504 18.4544 24.1504 18.4008Z" fill="#1F1F39"/>
<path d="M12.1267 18.4005C12.1267 18.4005 12.1178 17.8917 11.5644 17.0437C11.0109 16.1957 9.95764 15.9011 9.94871 15.9011C9.88623 15.8833 9.85945 15.8208 9.86837 15.7673C9.8773 15.7137 9.94871 15.678 10.0023 15.6869C10.0469 15.6958 11.1448 16.0083 11.7429 16.9277C12.341 17.8382 12.341 18.3827 12.341 18.4005C12.341 18.4541 12.2963 18.5076 12.2338 18.5076C12.1714 18.5076 12.1267 18.4541 12.1267 18.4005Z" fill="#1F1F39"/>
<path d="M14.9653 23.4264L14.5993 28.4966C14.5993 28.4966 15.1081 29.6124 17.8038 29.6124C20.7227 29.6124 21.5261 28.4966 21.5261 28.4966L21.3833 23.5068C21.3833 23.5068 23.2042 23.2122 24.079 19.9273C24.9538 16.6514 24.5164 13.7414 24.5164 13.7414C24.5164 13.7414 20.2139 14.4109 18.7589 12.6256C17.304 10.8403 15.84 9.04616 13.7245 9.93879C11.609 10.8314 11.8768 16.5889 12.4302 19.3293C12.9658 21.9804 14.9653 23.4264 14.9653 23.4264Z" fill="#DA5742"/>
<path fill-rule="evenodd" clip-rule="evenodd" d="M15.9115 16.5886C15.5467 16.5886 15.251 16.2369 15.251 15.8031C15.251 15.3693 15.5467 15.0176 15.9115 15.0176C16.2763 15.0176 16.5721 15.3693 16.5721 15.8031C16.5721 16.2369 16.2763 16.5886 15.9115 16.5886Z" fill="#1F1F39"/>
<path fill-rule="evenodd" clip-rule="evenodd" d="M20.7228 16.5886C20.358 16.5886 20.0623 16.2369 20.0623 15.8031C20.0623 15.3693 20.358 15.0176 20.7228 15.0176C21.0876 15.0176 21.3833 15.3693 21.3833 15.8031C21.3833 16.2369 21.0876 16.5886 20.7228 16.5886Z" fill="#1F1F39"/>
<path d="M17.8126 16.8838C18.0358 17.3301 18.616 17.1069 18.616 17.1069C18.616 17.1069 18.0358 16.9552 18.0358 16.5088C18.0268 16.0625 17.9911 14.5361 17.9911 14.5361C17.9911 14.5361 17.5895 16.4374 17.8126 16.8838Z" fill="#1F1F39"/>
<path d="M14.76 27.1223C14.8046 27.1133 19.5891 25.2567 20.4907 24.4087C20.4907 23.8909 20.5086 23.5071 20.5086 23.5071C20.5086 23.5071 19.6338 24.0248 17.5182 23.9534C16.5363 23.9177 15.4741 23.7303 14.9653 23.4268C14.9742 23.882 14.8046 26.9437 14.76 27.1223Z" fill="#C43D28"/>
<path fill-rule="evenodd" clip-rule="evenodd" d="M21.9273 18.5255C21.1435 18.5255 20.5081 18.1259 20.5081 17.6329C20.5081 17.1399 21.1435 16.7402 21.9273 16.7402C22.7112 16.7402 23.3466 17.1399 23.3466 17.6329C23.3466 18.1259 22.7112 18.5255 21.9273 18.5255Z" fill="#C43D28"/>
<path fill-rule="evenodd" clip-rule="evenodd" d="M14.4207 18.5255C13.6369 18.5255 13.0015 18.1259 13.0015 17.6329C13.0015 17.1399 13.6369 16.7402 14.4207 16.7402C15.2046 16.7402 15.84 17.1399 15.84 17.6329C15.84 18.1259 15.2046 18.5255 14.4207 18.5255Z" fill="#C43D28"/>
<path d="M18.3032 18.7309C18.6602 18.6417 19.3743 18.1061 19.3743 18.1061C19.3743 18.1061 19.5528 18.0168 19.6421 18.1061C19.7314 18.1953 19.1601 19.2129 18.6602 19.3558C18.0354 19.5343 17.5891 19.2665 17.3213 18.9094C17.0535 18.5524 17.4105 18.6417 17.4105 18.6417C17.4105 18.6417 17.9461 18.8202 18.3032 18.7309Z" fill="white"/>
<path d="M14.9114 21.5878C16.2503 21.9449 16.0004 22.5697 16.5806 22.3019C17.1697 22.0342 17.3304 21.4986 18.5087 21.6771C19.678 21.8556 19.4281 22.4805 20.1779 22.3912C20.9277 22.3019 22.1863 21.4093 22.7665 20.8737C23.3557 20.3382 24.1858 19.4455 24.1858 19.4455C24.1858 19.4455 23.6502 23.1946 20.6689 24.0872C18.4284 24.7567 15.2506 24.4443 13.8313 22.3912C12.412 20.3382 12.3228 19.1777 12.3228 19.1777C12.3228 19.1777 13.5724 21.2308 14.9114 21.5878Z" fill="#1F1F39"/>
<path d="M16.277 21.1418C16.2234 21.1061 16.2145 21.0436 16.2502 20.99L16.6072 20.4545C16.6429 20.4009 16.7054 20.392 16.759 20.4277C16.8125 20.4634 16.8215 20.5259 16.7858 20.5794L16.4287 21.115C16.4109 21.1418 16.3752 21.1596 16.3394 21.1596C16.3216 21.1596 16.2948 21.1507 16.277 21.1418Z" fill="#1F1F39"/>
<path d="M14.3762 20.7661C14.3405 20.7125 14.3583 20.65 14.403 20.6143L14.9385 20.2573C14.9921 20.2216 15.0546 20.2394 15.0903 20.2841C15.126 20.3376 15.1081 20.4001 15.0635 20.4358L14.5279 20.7929C14.5101 20.8018 14.4922 20.8107 14.4654 20.8107C14.4297 20.8107 14.394 20.7929 14.3762 20.7661Z" fill="#1F1F39"/>
<path d="M18.1963 21.2312V20.7849C18.1963 20.7224 18.2498 20.6777 18.3034 20.6777C18.357 20.6777 18.4105 20.7313 18.4105 20.7849V21.2312C18.4105 21.2937 18.3659 21.3383 18.3034 21.3383C18.2409 21.3383 18.1963 21.2847 18.1963 21.2312Z" fill="#1F1F39"/>
<path d="M19.8925 20.9986L19.7139 20.5523C19.6872 20.4988 19.7229 20.4273 19.7764 20.4095C19.83 20.3827 19.9014 20.4184 19.9192 20.472L20.0978 20.9183C20.1246 20.9719 20.0888 21.0433 20.0353 21.0611C20.0264 21.07 20.0174 21.07 19.9996 21.07C19.955 21.07 19.9103 21.0433 19.8925 20.9986Z" fill="#1F1F39"/>
<path d="M21.9096 20.8734L21.2847 20.5163C21.2312 20.4895 21.2133 20.4181 21.2401 20.3646C21.2669 20.311 21.3383 20.2931 21.3918 20.3199L22.0167 20.677C22.0702 20.7038 22.0881 20.7752 22.0613 20.8287C22.0345 20.8734 21.9988 20.8912 21.9631 20.8912C21.9453 20.8912 21.9274 20.8823 21.9096 20.8734Z" fill="#1F1F39"/>
<g opacity="0.5919">
<g opacity="0.5919">
<path opacity="0.5919" d="M12.9879 33.889C13.1485 33.9962 13.3628 33.9783 13.5502 33.9337C13.7823 33.8712 14.0233 33.7551 14.2554 33.8801C14.4607 33.9872 14.5589 34.2282 14.5053 34.4514C14.4875 34.5317 14.6125 34.5674 14.6303 34.4871C14.7374 34.0497 14.3804 33.648 13.9341 33.7016C13.702 33.7284 13.4788 33.8623 13.2378 33.8444C12.9789 33.8266 12.9165 33.5945 12.8718 33.3713C12.854 33.2731 12.729 33.3088 12.7469 33.3981C12.7826 33.5766 12.8272 33.773 12.9879 33.889Z" fill="#BFE3C6"/>
<path opacity="0.5919" d="M4.74896 35.9956C4.74003 35.817 4.75788 35.6564 4.92748 35.5582C5.26668 35.3439 5.60588 35.6564 5.93616 35.6831C6.23965 35.7099 6.43603 35.4421 6.51637 35.1743C6.58778 34.9066 6.55207 34.612 6.40032 34.3799C6.35569 34.3085 6.23965 34.371 6.28428 34.4513C6.45388 34.7102 6.46281 35.0583 6.30213 35.3261C6.19502 35.5046 6.04327 35.585 5.84689 35.5225C5.68622 35.4778 5.53447 35.3886 5.36487 35.3618C5.10601 35.3172 4.79359 35.3796 4.66862 35.6474C4.60614 35.7813 4.61506 35.9331 4.62399 36.0759C4.63291 36.2544 4.65969 36.433 4.70433 36.6026C4.72218 36.6829 4.84715 36.6472 4.82929 36.5668C4.78466 36.3794 4.74896 36.183 4.74896 35.9956Z" fill="#BFE3C6"/>
<path opacity="0.5919" d="M21.8874 32.6572C21.9856 32.916 22.173 33.0856 22.3515 33.2909C22.4587 33.407 22.5479 33.5766 22.3783 33.6837C22.2355 33.773 22.048 33.7908 21.8874 33.7819C21.7981 33.7819 21.7981 33.9158 21.8874 33.9158C22.1105 33.9247 22.5033 33.8801 22.5926 33.6391C22.6818 33.407 22.4497 33.2017 22.3069 33.0499C22.1016 32.8357 21.9409 32.5501 21.9499 32.2466C21.9588 31.9788 22.1195 31.7199 22.3783 31.6396C22.4676 31.6039 22.4319 31.4789 22.3426 31.5057C21.8606 31.6574 21.7178 32.2198 21.8874 32.6572Z" fill="#BFE3C6"/>
<path opacity="0.5919" d="M30.0017 35.3348C29.8945 35.5579 29.9659 35.8079 30.0106 36.031C30.0552 36.2631 30.0641 36.5309 29.8321 36.6648C29.6178 36.7808 29.3679 36.6916 29.234 36.5041C29.1894 36.4327 29.0733 36.5041 29.1179 36.5755C29.2429 36.7541 29.4393 36.879 29.6625 36.8612C29.8767 36.8433 30.0731 36.7005 30.1445 36.4952C30.2248 36.2453 30.1266 35.9864 30.0909 35.7365C30.0731 35.6115 30.0731 35.4687 30.1534 35.3526C30.2159 35.2634 30.323 35.2009 30.439 35.2366C30.5194 35.2455 30.5551 35.1205 30.4747 35.0938C30.2784 35.0313 30.0909 35.1652 30.0017 35.3348Z" fill="#BFE3C6"/>
</g>
</g>
</g>
<defs>
<clipPath id="clip0_0_2308">
<rect width="36" height="36" fill="white"/>
</clipPath>
</defs>
</svg>
